<svg width="183" height="187" viewBox="0 0 183 187" fill="none" xmlns="http://www.w3.org/2000/svg">
<g clip-path="url(#clip0_9_21)">
<path d="M26.7409 119.293C41.5095 119.293 53.4819 106.862 53.4819 91.5286C53.4819 76.1949 41.5095 63.7644 26.7409 63.7644C11.9723 63.7644 0 76.1949 0 91.5286C0 106.862 11.9723 119.293 26.7409 119.293Z" fill="#F2F2F2"/>
<path d="M26.9799 92.6861C32.8691 92.6861 37.6433 87.7293 37.6433 81.6147C37.6433 75.5001 32.8691 70.5432 26.9799 70.5432C21.0906 70.5432 16.3164 75.5001 16.3164 81.6147C16.3164 87.7293 21.0906 92.6861 26.9799 92.6861Z" fill="#2F2E41"/>
<path d="M53.6267 27.8135C53.6174 33.3047 52.0399 38.6697 49.0937 43.2301C46.1476 47.7905 41.9652 51.3414 37.0753 53.4338C32.1855 55.5263 26.8079 56.0662 21.6225 54.9853C16.4371 53.9045 11.6768 51.2514 7.94367 47.3617C4.21052 43.4719 1.67214 38.5201 0.649535 33.1325C-0.37307 27.7449 0.166023 22.1634 2.19864 17.0939C4.23126 12.0243 7.66611 7.69448 12.0688 4.6518C16.4716 1.60913 21.6444 -0.00969196 26.9333 4.36555e-05C30.4475 -0.00295569 33.9277 0.715131 37.1738 2.11304C40.4199 3.51095 43.3679 5.56112 45.8484 8.14572C48.329 10.7303 50.2931 13.7984 51.628 17.1737C52.9628 20.5489 53.6421 24.1648 53.6267 27.8135Z" fill="#F2F2F2"/>
<path d="M90.1964 119.293C104.965 119.293 116.937 106.862 116.937 91.5286C116.937 76.1949 104.965 63.7644 90.1964 63.7644C75.4278 63.7644 63.4555 76.1949 63.4555 91.5286C63.4555 106.862 75.4278 119.293 90.1964 119.293Z" fill="#F2F2F2"/>
<path d="M90.1186 55.5285C104.887 55.5285 116.86 43.098 116.86 27.7642C116.86 12.4305 104.887 0 90.1186 0C75.35 0 63.3777 12.4305 63.3777 27.7642C63.3777 43.098 75.35 55.5285 90.1186 55.5285Z" fill="#F2F2F2"/>
<path d="M155.293 55.5285C170.061 55.5285 182.034 43.098 182.034 27.7642C182.034 12.4305 170.061 0 155.293 0C140.524 0 128.552 12.4305 128.552 27.7642C128.552 43.098 140.524 55.5285 155.293 55.5285Z" fill="#F2F2F2"/>
<path d="M156.259 119.293C171.028 119.293 183 106.862 183 91.5286C183 76.1949 171.028 63.7644 156.259 63.7644C141.49 63.7644 129.518 76.1949 129.518 91.5286C129.518 106.862 141.49 119.293 156.259 119.293Z" fill="#F2F2F2"/>
<path d="M53.6268 159.236C53.6268 164.727 52.0585 170.095 49.1201 174.661C46.1818 179.226 42.0054 182.785 37.1192 184.886C32.2329 186.988 26.8562 187.538 21.669 186.466C16.4817 185.395 11.717 182.751 7.97716 178.868C4.23738 174.985 1.69055 170.038 0.658744 164.652C-0.373061 159.266 0.156501 153.684 2.18046 148.611C4.20442 143.537 7.63187 139.201 12.0294 136.15C16.4269 133.1 21.597 131.471 26.8859 131.471C30.4019 131.455 33.8862 132.162 37.1376 133.552C40.3891 134.941 43.3432 136.986 45.8294 139.567C48.3157 142.148 50.2848 145.216 51.6231 148.592C52.9614 151.967 53.6424 155.585 53.6268 159.236Z" fill="#F2F2F2"/>
<path d="M91.8371 187C106.606 187 118.578 174.57 118.578 159.236C118.578 143.902 106.606 131.472 91.8371 131.472C77.0685 131.472 65.0962 143.902 65.0962 159.236C65.0962 174.57 77.0685 187 91.8371 187Z" fill="#F2F2F2"/>
<path d="M14.4917 18.7325C15.5974 15.0738 18.1119 11.7181 21.5893 10.4812C25.067 9.24438 30.1591 11.1285 32.7735 13.8338C37.5558 18.7823 38.7228 35.7821 35.4372 41.1543C34.7837 41.1183 32.5286 41.0918 31.8672 41.0661L30.9315 37.8281V41.0341C29.8778 41.0003 28.8158 40.977 27.7455 40.9641C24.1571 40.9179 20.7258 39.429 18.1728 36.8105C15.6199 34.192 14.1441 30.6477 14.0558 26.9229C13.9702 23.3596 14.0559 20.1744 14.4917 18.7325Z" fill="#2F2E41"/>
<path d="M26.4893 30.8586C30.6982 30.8586 34.1102 27.316 34.1102 22.9459C34.1102 18.5759 30.6982 15.0333 26.4893 15.0333C22.2803 15.0333 18.8683 18.5759 18.8683 22.9459C18.8683 27.316 22.2803 30.8586 26.4893 30.8586Z" fill="#9E616A"/>
<path d="M19.9121 15.9968L28.6869 11.4348C30.4809 12.2742 32.0259 13.5965 33.1618 15.2648C34.2976 16.933 34.9829 18.8864 35.1466 20.9223L35.3654 23.6423L31.6909 22.6712L31.2883 19.193L30.6643 22.3999L28.9686 21.9519L28.9847 16.5521L27.2879 21.9481L21.2315 20.5033L19.9121 15.9968Z" fill="#2F2E41"/>
<path d="M82.8533 81.1106C84.9383 81.1106 86.6286 79.3556 86.6286 77.1907C86.6286 75.0259 84.9383 73.2709 82.8533 73.2709C80.7682 73.2709 79.0779 75.0259 79.0779 77.1907C79.0779 79.3556 80.7682 81.1106 82.8533 81.1106Z" fill="#2F2E41"/>
<path d="M88.8939 96.006C94.1761 96.006 98.4581 91.56 98.4581 86.0757C98.4581 80.5914 94.1761 76.1454 88.8939 76.1454C83.6117 76.1454 79.3296 80.5914 79.3296 86.0757C79.3296 91.56 83.6117 96.006 88.8939 96.006Z" fill="#2F2E41"/>
<path d="M89.6853 96.0035C93.9777 96.0035 97.4573 92.3907 97.4573 87.9341C97.4573 83.4774 93.9777 79.8646 89.6853 79.8646C85.3929 79.8646 81.9132 83.4774 81.9132 87.9341C81.9132 92.3907 85.3929 96.0035 89.6853 96.0035Z" fill="#9E616A"/>
<path d="M94.9633 79.7084C93.6014 78.8463 92.0414 78.38 90.4465 78.3582C88.8516 78.3364 87.2804 78.7598 85.8971 79.5843C84.5138 80.4087 83.3692 81.6039 82.583 83.0449C81.7969 84.4858 81.398 86.1196 81.4281 87.7753C85.3884 88.8077 89.5489 89.5977 93.7722 88.0223L94.7696 85.4879L95.3576 88.0242C96.6438 88.57 97.9332 89.0318 99.2227 88.0189C99.2754 86.3678 98.9097 84.7312 98.1622 83.2729C97.4148 81.8145 96.3117 80.5854 94.9633 79.7084Z" fill="#2F2E41"/>
<path d="M79.3382 66.5498C76.7275 65.307 73.4519 65.8902 71.2781 67.839C69.1043 69.7878 68.0709 72.9596 68.4905 75.9095C68.9186 78.9188 70.6807 81.5103 72.3049 84.042C73.9291 86.5738 75.5159 89.348 75.5141 92.39C75.5128 94.581 74.6747 96.6821 73.1835 98.2324C71.6924 99.7827 69.6699 100.656 67.5597 100.66C70.0364 101.767 72.6214 102.896 75.3149 102.765C78.0085 102.633 80.8317 100.836 81.271 98.0734C81.5876 96.0831 80.6471 94.1423 79.8627 92.2967C78.5851 89.2894 77.6616 86.1331 77.1123 82.8961C76.8503 81.3512 76.6797 79.727 77.1648 78.2414C77.5511 77.1405 78.268 76.1976 79.2096 75.5518C80.1512 74.906 81.2678 74.5914 82.3946 74.6545L83.2846 73.8232C83.6805 70.8697 81.9488 67.7927 79.3382 66.5498Z" fill="#2F2E41"/>
<path d="M144.379 16.9044C144.012 18.9517 143.41 20.946 142.587 22.8448C137.869 33.2057 151.303 29.8285 156.104 29.8285C161.352 29.8285 166.375 32.6942 165.607 19.961C165.28 14.5219 161.352 10.0934 156.104 10.0934C151.62 10.0934 145.317 12.1625 144.379 16.9044Z" fill="#2F2E41"/>
<path d="M155.317 29.8261C159.582 29.8261 163.04 26.2361 163.04 21.8076C163.04 17.3791 159.582 13.7891 155.317 13.7891C151.052 13.7891 147.594 17.3791 147.594 21.8076C147.594 26.2361 151.052 29.8261 155.317 29.8261Z" fill="#FFB6B6"/>
<path d="M150.072 13.6338C151.426 12.7772 152.976 12.3138 154.561 12.2921C156.146 12.2705 157.707 12.6912 159.081 13.5105C160.456 14.3297 161.593 15.5174 162.375 16.9492C163.156 18.3811 163.552 20.0045 163.522 21.6498C159.587 22.6757 155.453 23.4607 151.256 21.8952L150.265 19.3768L149.681 21.8971C148.403 22.4394 147.121 22.8983 145.84 21.8918C145.788 20.2512 146.151 18.625 146.894 17.1758C147.636 15.7266 148.733 14.5053 150.072 13.6338Z" fill="#2F2E41"/>
<path d="M26.9842 94.1405C32.2453 94.1405 36.5103 89.7124 36.5103 84.2499C36.5103 78.7875 32.2453 74.3593 26.9842 74.3593C21.7231 74.3593 17.4581 78.7875 17.4581 84.2499C17.4581 89.7124 21.7231 94.1405 26.9842 94.1405Z" fill="#FFB8B8"/>
<path d="M91.2484 162.116C95.7289 162.116 99.361 158.345 99.361 153.693C99.361 149.041 95.7289 145.27 91.2484 145.27C86.768 145.27 83.1359 149.041 83.1359 153.693C83.1359 158.345 86.768 162.116 91.2484 162.116Z" fill="#9E616A"/>
<path d="M91.2085 30.5964C96.0243 30.5964 99.9283 26.543 99.9283 21.543C99.9283 16.5429 96.0243 12.4895 91.2085 12.4895C86.3928 12.4895 82.4888 16.5429 82.4888 21.543C82.4888 26.543 86.3928 30.5964 91.2085 30.5964Z" fill="#FFB8B8"/>
<path d="M98.886 15.5621C98.886 15.5621 101.156 11.0558 96.1615 10.6462C96.1615 10.6462 91.9034 6.63572 87.5633 9.913C87.5633 9.913 85.1959 9.913 83.9014 12.6945C83.9014 12.6945 82.0394 11.9613 81.6303 13.9234C81.6303 13.9234 80.2678 18.02 81.6303 21.707C82.9927 25.3939 83.4452 25.8036 83.4452 25.8036C83.4452 25.8036 82.4893 21.2283 87.9386 20.8186C93.3879 20.409 98.3871 16.8646 98.8413 21.3708C99.2954 25.877 99.7946 23.8414 99.7946 23.8414C99.7946 23.8414 104.108 17.4055 98.886 15.5621Z" fill="#2F2E41"/>
<path d="M155.521 94.968C160.235 94.968 164.057 91.0001 164.057 86.1054C164.057 81.2107 160.235 77.2427 155.521 77.2427C150.807 77.2427 146.985 81.2107 146.985 86.1054C146.985 91.0001 150.807 94.968 155.521 94.968Z" fill="#FFB6B6"/>
<path d="M37.8223 152.592L37.69 152.84C38.8677 149.827 37.7968 146.113 35.6959 143.841C33.5951 141.569 30.6744 140.53 27.7985 140.118C25.6636 139.812 23.4477 139.821 21.4177 140.633C18.478 141.808 16.2321 144.53 14.3569 147.362C13.4992 148.657 12.6558 150.133 12.7413 151.752C12.8206 153.254 13.6794 154.529 14.3827 155.803C15.086 157.078 15.6734 158.659 15.1686 160.05C14.8678 160.879 14.2321 161.476 13.7163 162.154C13.2005 162.832 12.7761 163.748 13.0253 164.599C13.1359 164.925 13.326 165.215 13.5769 165.441C13.8278 165.668 14.1311 165.823 14.4569 165.891C15.0805 166.042 15.7274 165.943 16.3589 165.844L32.7513 163.273C33.8652 163.098 34.9219 162.646 35.8312 161.956C36.7406 161.265 37.4757 160.357 37.9738 159.308C38.4719 158.259 38.7182 157.1 38.6919 155.931C38.6655 154.762 38.3672 153.616 37.8223 152.592Z" fill="#2F2E41"/>
<path d="M33.5405 156.166C34.2495 151.629 31.2823 147.355 26.9132 146.619C22.544 145.883 18.4273 148.964 17.7183 153.5C17.0093 158.036 19.9764 162.311 24.3456 163.047C28.7148 163.783 32.8314 160.702 33.5405 156.166Z" fill="#FFB9B9"/>
<path d="M46.9651 177.567C42.3323 183.04 35.8124 186.402 28.8128 186.928C21.8132 187.453 14.8954 185.099 9.55281 180.374L11.8464 173.73C12.3648 172.549 13.1827 171.538 14.2126 170.804C15.2425 170.069 16.4454 169.64 17.6925 169.562L19.1516 169.469L22.631 166.353C22.631 166.353 32.0059 166.005 31.8668 165.839L37.5455 169.385L37.5407 169.361L39.7731 169.503C41.0202 169.581 42.2233 170.01 43.2532 170.744C44.2832 171.479 45.1011 172.49 45.6191 173.671L46.9651 177.567Z" fill="black"/>
<path d="M111.554 177.567C106.922 183.04 100.402 186.402 93.4022 186.928C86.4026 187.453 79.4848 185.099 74.1422 180.374L76.4358 173.73C76.9541 172.549 77.7721 171.538 78.8019 170.804C79.8318 170.069 81.0348 169.64 82.2818 169.562L83.741 169.469L87.2203 166.353C87.2203 166.353 96.5952 166.005 96.4561 165.839L102.135 169.385L102.13 169.361L104.362 169.503C105.61 169.581 106.813 170.01 107.843 170.744C108.873 171.479 109.69 172.49 110.208 173.671L111.554 177.567Z" fill="black"/>
<path d="M33.2314 147.11C33.0245 145.973 31.9082 145.454 30.9518 145.202C28.1777 144.467 25.292 144.302 22.4571 144.718C20.3905 145.024 18.2748 145.698 16.7753 147.373C15.5662 148.783 14.8811 150.595 14.8431 152.483C14.782 153.611 15.0249 154.735 15.5446 155.729C16.0842 156.677 17.004 157.365 17.9534 157.341L18.0496 157.688C22.0735 157.106 25.8113 154.506 28.1654 150.653C27.7235 152.291 26.8443 153.766 25.6292 154.907C28.3459 153.778 30.7073 151.888 32.4505 149.448C32.9265 148.792 33.3887 147.974 33.2314 147.11Z" fill="#2F2E41"/>
<path d="M46.7294 109.772C42.0966 115.245 35.5767 118.607 28.5771 119.132C21.5775 119.658 14.6597 117.304 9.31708 112.579L11.6107 105.934C12.129 104.754 12.947 103.743 13.9769 103.008C15.0068 102.274 16.2097 101.845 17.4567 101.766L18.9159 101.673L22.3952 98.5576C22.3952 98.5576 31.7701 98.2101 31.631 98.0436L37.3097 101.59L37.305 101.566L39.5373 101.708C40.7845 101.786 41.9876 102.215 43.0175 102.949C44.0474 103.683 44.8653 104.695 45.3834 105.876L46.7294 109.772Z" fill="black"/>
<path d="M110.317 110.105C105.684 115.578 99.1642 118.94 92.1646 119.465C85.165 119.991 78.2472 117.637 72.9046 112.912L75.1983 106.267C75.7166 105.087 76.5345 104.076 77.5644 103.341C78.5943 102.607 79.7973 102.178 81.0443 102.099L82.5035 102.006L85.9828 98.8906C85.9828 98.8906 95.3577 98.5431 95.2186 98.3766L100.897 101.923L100.893 101.899L103.125 102.041C104.372 102.119 105.575 102.548 106.605 103.282C107.635 104.016 108.453 105.028 108.971 106.209L110.317 110.105Z" fill="black"/>
<path d="M176.321 110.105C171.688 115.578 165.168 118.94 158.168 119.465C151.169 119.991 144.251 117.637 138.908 112.912L141.202 106.267C141.72 105.087 142.538 104.076 143.568 103.341C144.598 102.607 145.801 102.178 147.048 102.099L148.507 102.006L151.986 98.8906C151.986 98.8906 161.361 98.5431 161.222 98.3766L166.901 101.923L166.896 101.899L169.129 102.041C170.376 102.119 171.579 102.548 172.609 103.282C173.639 104.016 174.457 105.028 174.975 106.209L176.321 110.105Z" fill="black"/>
<path d="M46.7294 46.1375C42.0966 51.6106 35.5767 54.9726 28.5771 55.4979C21.5775 56.0231 14.6597 53.6693 9.31708 48.9447L11.6107 42.2998C12.129 41.1196 12.947 40.1081 13.9769 39.3738C15.0068 38.6395 16.2097 38.2102 17.4567 38.1317L18.9159 38.0387L22.3952 34.9231C22.3952 34.9231 31.7701 34.5755 31.631 34.4091L37.3097 37.9555L37.305 37.931L39.5373 38.073C40.7845 38.1511 41.9876 38.5803 43.0175 39.3146C44.0474 40.049 44.8653 41.0606 45.3834 42.2411L46.7294 46.1375Z" fill="black"/>
<path d="M110.081 46.2257C105.448 51.6989 98.9285 55.0609 91.9289 55.5861C84.9293 56.1114 78.0115 53.7576 72.6689 49.033L74.9625 42.3881C75.4809 41.2079 76.2988 40.1964 77.3287 39.4621C78.3586 38.7278 79.5616 38.2985 80.8086 38.22L82.2677 38.127L85.7471 35.0114C85.7471 35.0114 95.122 34.6638 94.9829 34.4974L100.662 38.0438L100.657 38.0193L102.889 38.1613C104.136 38.2394 105.339 38.6686 106.369 39.4029C107.399 40.1373 108.217 41.1489 108.735 42.3293L110.081 46.2257Z" fill="black"/>
<path d="M176.085 46.2257C171.452 51.6989 164.932 55.0609 157.933 55.5861C150.933 56.1114 144.015 53.7576 138.673 49.033L140.966 42.3881C141.485 41.2079 142.303 40.1964 143.332 39.4621C144.362 38.7278 145.565 38.2985 146.812 38.22L148.271 38.127L151.751 35.0114C151.751 35.0114 161.126 34.6638 160.987 34.4974L166.665 38.0438L166.661 38.0193L168.893 38.1613C170.14 38.2394 171.343 38.6686 172.373 39.4029C173.403 40.1373 174.221 41.1489 174.739 42.3293L176.085 46.2257Z" fill="black"/>
<path d="M164.524 80.6089C163.802 77.9284 162.164 75.6133 159.915 74.0983C158.123 72.9082 155.886 72.3006 153.856 72.93C151.826 73.5594 150.145 75.6281 150.278 77.8632C149.545 77.6043 148.712 77.9487 148.176 78.5373C147.639 79.1259 147.351 79.9176 147.144 80.7056C146.493 83.2116 146.536 85.8577 147.269 88.3393L147.228 88.6955C148.219 88.5254 148.97 87.643 149.437 86.7028C149.904 85.7627 150.173 84.7197 150.68 83.8026C151.186 82.8855 152.027 82.0674 153.03 82.0387L152.942 83.6307C153.805 83.1691 154.668 82.7074 155.531 82.2458C155.325 82.7556 155.12 83.2654 154.915 83.7753C155.668 83.4482 156.422 83.1212 157.176 82.7941C157.092 83.2844 157.007 83.7746 156.923 84.2649C157.671 82.4984 159.982 81.7224 161.555 82.7101C162.468 83.2836 163.067 84.3058 163.382 85.3793C163.697 86.4528 163.76 87.5884 163.82 88.7107C164.984 86.1856 165.234 83.3096 164.524 80.6089Z" fill="#2F2E41"/>
<path d="M83.8773 157.587C83.8613 157.541 83.8468 157.494 83.831 157.448C83.7998 157.477 83.7699 157.506 83.736 157.533L83.8773 157.587Z" fill="#2F2E41"/>
<path d="M100.966 150.696C100.925 149.842 100.709 149.006 100.334 148.244C99.9584 147.482 99.4317 146.811 98.7885 146.276C98.3157 145.888 97.7688 145.56 97.4558 145.025C97.2772 144.647 97.1259 144.255 97.003 143.853C96.3803 142.314 94.6054 141.496 93.0133 141.729C91.4212 141.962 90.0433 143.074 89.1153 144.437C88.658 144.21 88.1476 144.123 87.6443 144.188C87.1411 144.252 86.6661 144.465 86.2758 144.801C85.8854 145.137 85.5959 145.582 85.4416 146.083C85.2873 146.585 85.2746 147.122 85.405 147.63C84.5806 146.941 83.2469 147.492 82.7323 148.453C82.2176 149.414 82.2993 150.589 82.4523 151.677C82.7295 153.643 83.1913 155.576 83.831 157.448C84.6338 156.714 84.5844 155.377 84.4863 154.247C84.3844 153.074 84.4455 151.64 85.4341 151.061C86.3893 150.501 87.5486 151.116 88.6018 151.434C89.4345 151.679 90.3084 151.733 91.1634 151.593C92.0183 151.454 92.8339 151.123 93.554 150.625C94.1026 150.239 94.5911 149.757 95.1825 149.447C95.7739 149.137 96.5265 149.03 97.0771 149.412C97.58 149.761 97.7845 150.412 97.9556 151.015C98.3611 152.443 98.7666 153.87 99.1721 155.298C99.7674 154.706 100.235 153.99 100.544 153.197C100.854 152.404 100.997 151.551 100.966 150.696Z" fill="#2F2E41"/>
<path d="M37.0344 80.7813C37.1012 80.0428 37.1318 79.3013 37.1261 78.5597C37.1651 77.0928 36.9062 75.6339 36.3664 74.2778C35.7026 72.7762 34.5189 71.589 33.0506 70.9519C31.5953 70.3425 29.9689 70.3439 28.5146 70.956C27.2016 70.0947 25.7427 69.4119 24.2064 69.3273C22.67 69.2428 21.0456 69.8346 20.0988 71.1373C19.8874 71.4812 19.6472 71.8051 19.3812 72.1053C18.6201 72.837 17.4635 72.7315 16.4519 72.5819C16.9056 72.9856 17.3595 73.3894 17.8134 73.7931C17.2642 73.9421 16.7149 74.091 16.1656 74.24C16.8066 74.6436 17.4475 75.0472 18.0884 75.4508C16.2277 76.6104 15.382 79.1413 15.6054 81.4399C15.8167 83.6161 16.8286 85.6061 18.0383 87.3748C18.5209 86.3175 18.4169 85.0524 18.4089 83.8616C18.4045 83.4753 18.4272 83.0893 18.4768 82.7065C22.565 83.7239 26.8366 84.3769 31.1685 82.761L32.0378 80.5519C32.1598 80.5649 32.2819 80.5772 32.4038 80.5906L32.9074 82.763C34.0493 83.2476 35.1936 83.6711 36.3383 83.2261C36.394 83.5616 36.4275 83.9041 36.4533 84.2332C36.5515 83.8395 36.6367 83.4429 36.7136 83.0447C36.8649 82.9604 37.0098 82.8643 37.147 82.7572C37.1747 82.0963 37.1369 81.4342 37.0344 80.7813Z" fill="#2F2E41"/>
</g>
<defs>
<clipPath id="clip0_9_21">
<rect width="183" height="187" fill="white"/>
</clipPath>
</defs>
</svg>
